<svg xmlns="http://www.w3.org/2000/svg" xmlns:xlink="http://www.w3.org/1999/xlink" width="42" height="36" viewBox="0 0 42 36">
  <style>
    .black {
      fill: rgb(35, 36, 41);
    }
    .white {
      fill: #ffffff;
    }
  </style>
  <!-- Common -->
  <symbol viewBox="0 0 46 46" id="close" data-source="exit-cancel">
    <path d="M28.657 23L44.83 6.828a4 4 0 0 0-5.657-5.657L23 17.343 6.83 1.17a4 4 0 0 0-5.657 5.657L17.342 23 1.173 39.17a4 4 0 0 0 5.657 5.657L23 28.657l16.172 16.171a4 4 0 0 0 5.657-5.657z"/>
  </symbol>
  <!-- Toggle -->
  <symbol viewBox="0 0 48 28" id="down" data-source="down">
    <path d="M48 4a3.989 3.989 0 0 1-1.172 2.829l-20 20a4 4 0 0 1-5.657 0l-20-20a4 4 0 0 1 5.657-5.657L24 18.343 41.17 1.172A4 4 0 0 1 48 4z"/>
  </symbol>
  <symbol viewBox="0 0 48 28" id="up" data-source="up">
    <path d="M0 24a3.989 3.989 0 0 1 1.171-2.828l20-20a4 4 0 0 1 5.658 0l20 20a4 4 0 1 1-5.658 5.657L24 9.657 6.829 26.829A4 4 0 0 1 0 24z"/>
  </symbol>
  <!-- Actual content -->
  <use xlink:href="#up" width="18" height="18" y="0" class="black"/>
  <use xlink:href="#down" width="18" height="18" y="18" x="0" class="black"/>
  <use xlink:href="#close" width="12" height="12" y="0" x="18" class="black"/>
  <use xlink:href="#close" width="12" height="12" y="0" x="30" class="white"/>
</svg>
